<?xml version="1.0" encoding="UTF-8"?>
<svg xmlns="http://www.w3.org/2000/svg" width="1400" height="900" viewBox="0 0 1400 900">
  <style>
    .box { fill: #ffffff; stroke: #000000; stroke-width: 3; }
    .title { font: 28px sans-serif; font-weight: 700; }
    .label { font: 22px sans-serif; }
    .line { stroke: #000000; stroke-width: 3; }
  </style>

  <text x="80" y="60" class="title">ESP32 ↔ OLED + BME680 (I²C wiring)</text>

  <!-- Boxes -->
  <rect x="80" y="120" width="440" height="660" class="box"/>
  <rect x="880" y="140" width="400" height="240" class="box"/>
  <rect x="880" y="520" width="400" height="240" class="box"/>

  <!-- Titles -->
  <text x="100" y="165" class="title">ESP32</text>
  <text x="900" y="185" class="title">OLED (SH1106) 0x3C</text>
  <text x="900" y="565" class="title">BME680 (BSEC)</text>

  <!-- ESP32 pins -->
  <text x="120" y="240" class="label">3V3</text>
  <text x="120" y="320" class="label">GND</text>
  <text x="120" y="400" class="label">GPIO21 (SDA)</text>
  <text x="120" y="480" class="label">GPIO22 (SCL)</text>

  <!-- OLED pins -->
  <text x="900" y="240" class="label">VCC</text>
  <text x="900" y="280" class="label">GND</text>
  <text x="900" y="320" class="label">SDA</text>
  <text x="900" y="360" class="label">SCL</text>

  <!-- BME680 pins -->
  <text x="900" y="620" class="label">VIN/3V3</text>
  <text x="900" y="660" class="label">GND</text>
  <text x="900" y="700" class="label">SDA</text>
  <text x="900" y="740" class="label">SCL</text>

  <!-- Lines to OLED -->
  <line x1="360" y1="230" x2="880" y2="235" class="line"/>
  <line x1="360" y1="310" x2="880" y2="275" class="line"/>
  <line x1="360" y1="390" x2="880" y2="315" class="line"/>
  <line x1="360" y1="470" x2="880" y2="355" class="line"/>

  <!-- Lines to BME680 -->
  <line x1="360" y1="230" x2="880" y2="615" class="line"/>
  <line x1="360" y1="310" x2="880" y2="655" class="line"/>
  <line x1="360" y1="390" x2="880" y2="695" class="line"/>
  <line x1="360" y1="470" x2="880" y2="735" class="line"/>
</svg>
